<svg width="16" height="16" viewBox="0 0 16 16" fill="none" xmlns="http://www.w3.org/2000/svg">
<path d="M8 1C11.866 1 15 4.13401 15 8C15 11.866 11.866 15 8 15C4.13401 15 1 11.866 1 8C1 4.13401 4.13401 1 8 1ZM8 2.9668C7.70542 2.9668 7.4668 3.20542 7.4668 3.5V8C7.4668 8.14754 7.52628 8.28141 7.62305 8.37793C7.71951 8.47451 7.85284 8.53418 8 8.53418C8.00327 8.53418 8.00651 8.53326 8.00977 8.5332H11.5C11.7946 8.5332 12.0332 8.29458 12.0332 8C12.0332 7.70542 11.7946 7.4668 11.5 7.4668H8.5332V3.5C8.5332 3.20542 8.29458 2.9668 8 2.9668Z" fill="#64748B"/>
</svg>
