<svg width="20" height="20" viewBox="0 0 20 20" fill="none" xmlns="http://www.w3.org/2000/svg">
<g clip-path="url(#clip0_173_85122)">
<path d="M5.03609 6.69866L7.40961 8.65618L9.52426 6.21572C9.58348 6.14749 9.65835 6.09266 9.7433 6.05532C9.82826 6.01798 9.92111 5.99908 10.0149 6.00003C10.1088 6.00099 10.2012 6.02177 10.2852 6.06084C10.3693 6.0999 10.4429 6.15624 10.5005 6.22566L12.5185 8.6556L14.9687 6.67001C15.0649 6.5922 15.1842 6.54379 15.3106 6.53126C15.437 6.51873 15.5644 6.54268 15.6759 6.59991C15.7874 6.65714 15.8775 6.74491 15.9343 6.85148C15.9911 6.95805 16.0118 7.07833 15.9936 7.19623L15.0579 13.2459H4.95686L4.00683 7.22371C3.98796 7.10516 4.00842 6.98403 4.06544 6.87674C4.12245 6.76945 4.21328 6.68118 4.3256 6.62388C4.43792 6.56658 4.56632 6.54302 4.69341 6.5564C4.82049 6.56978 4.94012 6.61944 5.03609 6.69866ZM5.00552 13.8306H14.9862V14.4153C14.9862 14.5704 14.9205 14.7191 14.8035 14.8288C14.6865 14.9384 14.5278 15 14.3624 15H5.62931C5.46387 15 5.30521 14.9384 5.18822 14.8288C5.07124 14.7191 5.00552 14.5704 5.00552 14.4153V13.8306Z" fill="#EAB308"/>
</g>
<defs>
<clipPath id="clip0_173_85122">
<rect width="20" height="20" fill="white"/>
</clipPath>
</defs>
</svg>
