<svg width="14" height="12" viewBox="0 0 14 12" fill="none" xmlns="http://www.w3.org/2000/svg">
<path d="M9.2666 0.599609C11.1986 0.599609 12.7422 2.1317 12.7998 4.08398V4.2002C12.7998 5.24212 12.3962 6.14487 11.7275 6.75781L11.5332 6.93652V6.98047C11.4323 7.06604 11.3019 7.17783 11.1504 7.30957C10.8133 7.60273 10.3616 8.00038 9.87012 8.43359C8.88831 9.29892 7.74628 10.3083 7.01562 10.9395C6.83921 11.0862 6.56519 11.0865 6.3877 10.9414C5.65549 10.309 4.4923 9.2963 3.50293 8.43164C3.00734 7.99852 2.55548 7.6028 2.22363 7.31152C2.0735 7.17974 1.95404 7.07349 1.86621 6.99609V6.95117L1.69141 6.77539C0.997645 6.08163 0.599663 5.16559 0.599609 4.2002V4.08496C0.656393 2.21111 2.25607 0.666992 4.13379 0.666992C4.41196 0.667098 4.78066 0.763919 5.14844 0.961914C5.50034 1.1514 5.80838 1.41108 6.01074 1.7002C6.30753 2.30642 7.18326 2.29878 7.46582 1.67773C7.63109 1.37509 7.93069 1.10098 8.29199 0.899414C8.65958 0.694412 9.02626 0.599626 9.2666 0.599609Z" fill="#F43F5E" stroke="#F43F5E" stroke-width="1.2"/>
</svg>
