<svg width="17" height="13" viewBox="0 0 17 13" fill="none" xmlns="http://www.w3.org/2000/svg">
<path d="M16.7647 7.07507L11.0978 12.7616C10.5918 13.2693 9.71477 12.9139 9.71477 12.1862V8.93674H5.12724C4.67861 8.93674 4.31767 8.57456 4.31767 8.12437V4.87491C4.31767 4.42472 4.67861 4.06255 5.12724 4.06255H9.71477V0.813085C9.71477 0.0887262 10.5884 -0.270068 11.0978 0.23766L16.7647 5.92422C17.0784 6.24239 17.0784 6.75689 16.7647 7.07507ZM6.47651 12.5924V11.2384C6.47651 11.015 6.29436 10.8323 6.07173 10.8323H3.23826C2.6412 10.8323 2.15884 10.3482 2.15884 9.7491V3.25018C2.15884 2.65106 2.6412 2.16703 3.23826 2.16703H6.07173C6.29436 2.16703 6.47651 1.98424 6.47651 1.76084V0.406902C6.47651 0.183502 6.29436 0.000719914 6.07173 0.000719914H3.23826C1.45047 0.000719914 0 1.45621 0 3.25018V9.7491C0 11.5431 1.45047 12.9986 3.23826 12.9986H6.07173C6.29436 12.9986 6.47651 12.8158 6.47651 12.5924Z" fill="#FC4B4B"/>
</svg>
