<svg width="30" height="30" viewBox="0 0 30 30" fill="none" xmlns="http://www.w3.org/2000/svg">
<path d="M15 0C16.4276 0 17.5862 1.15862 17.5862 2.58621V12.4138H27.4138C28.0997 12.4138 28.7575 12.6863 29.2425 13.1713C29.7275 13.6563 30 14.3141 30 15C30 15.6859 29.7275 16.3437 29.2425 16.8287C28.7575 17.3137 28.0997 17.5862 27.4138 17.5862H17.5862V27.4138C17.5862 28.0997 17.3137 28.7575 16.8287 29.2425C16.3437 29.7275 15.6859 30 15 30C14.3141 30 13.6563 29.7275 13.1713 29.2425C12.6863 28.7575 12.4138 28.0997 12.4138 27.4138V17.5862H2.58621C1.9003 17.5862 1.24249 17.3137 0.757482 16.8287C0.272475 16.3437 0 15.6859 0 15C0 14.3141 0.272475 13.6563 0.757482 13.1713C1.24249 12.6863 1.9003 12.4138 2.58621 12.4138H12.4138V2.58621C12.4138 1.15862 13.5724 0 15 0Z" fill="#E2E8F0"/>
</svg>
