<svg width="20" height="20" viewBox="0 0 20 20" fill="none" xmlns="http://www.w3.org/2000/svg">
<g clip-path="url(#clip0_67_202828)">
<path d="M15 13.5C15 12.0734 14.1514 10.8148 12.8571 10.056V5.1H13.2143C13.4984 5.1 13.771 4.98938 13.9719 4.79246C14.1728 4.59555 14.2857 4.32848 14.2857 4.05C14.2857 3.77152 14.1728 3.50445 13.9719 3.30754C13.771 3.11062 13.4984 3 13.2143 3H6.78571C6.50155 3 6.22903 3.11062 6.0281 3.30754C5.82717 3.50445 5.71429 3.77152 5.71429 4.05C5.71429 4.32848 5.82717 4.59555 6.0281 4.79246C6.22903 4.98938 6.50155 5.1 6.78571 5.1H7.14286V10.056C5.84857 10.8148 5 12.0734 5 13.5H9.28571V16.3C9.28571 16.685 9.60714 17 10 17C10.3929 17 10.7143 16.685 10.7143 16.3V13.5H15Z" fill="#CBD5E1"/>
</g>
<defs>
<clipPath id="clip0_67_202828">
<rect width="20" height="20" fill="white"/>
</clipPath>
</defs>
</svg>
