<svg width="20" height="20" viewBox="0 0 20 20" fill="none" xmlns="http://www.w3.org/2000/svg">
<path fill-rule="evenodd" clip-rule="evenodd" d="M8.21591 3.06076C9.32724 2.10483 10.9709 2.10467 12.0821 3.06076C12.5621 3.47368 13.1617 3.72236 13.7931 3.76974C15.2548 3.87953 16.4166 5.04141 16.5265 6.50314C16.5739 7.13463 16.8224 7.73502 17.2354 8.21506C18.1915 9.32639 18.1916 10.97 17.2354 12.0813C16.8226 12.5613 16.5738 13.1608 16.5265 13.7922C16.4167 15.254 15.2549 16.4158 13.7931 16.5256C13.1617 16.573 12.5621 16.8217 12.0821 17.2346C10.9708 18.1907 9.32725 18.1906 8.21591 17.2346C7.73587 16.8216 7.13549 16.573 6.504 16.5256C5.04226 16.4157 3.88038 15.254 3.7706 13.7922C3.72321 13.1608 3.47454 12.5613 3.06161 12.0813C2.10552 10.97 2.10568 9.32639 3.06161 8.21506C3.47463 7.73502 3.72321 7.13463 3.7706 6.50314C3.88046 5.04146 5.04232 3.87961 6.504 3.76974C7.13549 3.72235 7.73587 3.47378 8.21591 3.06076ZM13.9786 7.3508C13.6419 7.04779 13.1235 7.0748 12.8204 7.41135L9.41122 11.1994L7.39267 9.51779C7.04473 9.22784 6.52747 9.27451 6.2374 9.62228C5.94747 9.97019 5.99421 10.4875 6.34189 10.7776L8.80576 12.8303C9.23478 13.1878 9.86966 13.1429 10.2433 12.7278L14.0392 8.509C14.3422 8.17229 14.3153 7.65388 13.9786 7.3508Z" fill="#74A1FB"/>
</svg>
