<svg width="16" height="16" viewBox="0 0 16 16" fill="none" xmlns="http://www.w3.org/2000/svg">
<g clip-path="url(#clip0_67_199596)">
<path fill-rule="evenodd" clip-rule="evenodd" d="M6.57113 2.44869C7.46019 1.68378 8.77484 1.68376 9.6639 2.44869C10.0479 2.77895 10.528 2.97719 11.033 3.0151C12.2024 3.10303 13.1318 4.03316 13.2196 5.2026C13.2575 5.70772 13.4566 6.18775 13.7869 6.57174C14.5516 7.4608 14.5518 8.77555 13.7869 9.66451C13.4565 10.0485 13.2575 10.5285 13.2196 11.0337C13.1316 12.2029 12.2023 13.1322 11.033 13.2202C10.5279 13.2581 10.0479 13.4571 9.6639 13.7876C8.77494 14.5524 7.46019 14.5522 6.57113 13.7876C6.18714 13.4572 5.70711 13.2581 5.20199 13.2202C4.03255 13.1324 3.10242 12.203 3.01449 11.0337C2.97658 10.5286 2.77834 10.0485 2.44808 9.66451C1.68315 8.77545 1.68317 7.4608 2.44808 6.57174C2.77845 6.18776 2.97653 5.70771 3.01449 5.2026C3.10226 4.03304 4.03243 3.10287 5.20199 3.0151C5.7071 2.97714 6.18715 2.77906 6.57113 2.44869ZM11.1815 5.88033C10.9121 5.63787 10.4972 5.65976 10.2547 5.92916L7.52718 8.95943L5.91195 7.61373C5.63352 7.38192 5.22008 7.41937 4.98812 7.69771C4.75616 7.97607 4.79388 8.38948 5.0721 8.62154L7.04281 10.2641C7.38602 10.5501 7.89433 10.5141 8.1932 10.1821L11.2303 6.80709C11.4727 6.53778 11.4506 6.12282 11.1815 5.88033Z" fill="#74A1FB"/>
</g>
<defs>
<clipPath id="clip0_67_199596">
<rect width="14" height="14" fill="white" transform="translate(1 1)"/>
</clipPath>
</defs>
</svg>
