<svg width="126" height="32" viewBox="0 0 126 32" fill="none" xmlns="http://www.w3.org/2000/svg">
<path d="M34.9999 19.0079C34.9999 19.0079 32.8614 18.9196 31.2928 16.2195C31.9304 15.1308 32.2425 13.8145 32.1194 12.3732C31.7728 8.31254 28.6126 4.90852 25.061 4.76975L20.07 4.57488C16.5184 4.43611 13.2335 7.47718 12.7328 11.367C12.2321 15.2571 15.2002 18.6224 19.3623 18.8842L25.2111 19.252C26.8531 19.3552 28.3273 18.9367 29.4909 18.1447C30.3888 18.7664 32.2012 19.6003 34.9999 19.0079Z" fill="#5189FA"/>
<path d="M25.6548 11.6838C25.5955 12.3119 26.0569 12.8691 26.685 12.9283C27.3131 12.9876 27.8703 12.5262 27.9296 11.8981C27.9888 11.2699 27.5275 10.7128 26.8993 10.6535C26.2712 10.5945 25.714 11.0556 25.6548 11.6838Z" fill="white"/>
<path d="M21.4634 11.2874C21.4041 11.9156 21.8655 12.4728 22.4936 12.5318C23.1217 12.591 23.6789 12.1297 23.738 11.5016C23.7972 10.8734 23.3359 10.3162 22.7077 10.257C22.0796 10.1982 21.5224 10.6593 21.4634 11.2874Z" fill="white"/>
<path d="M17.2715 10.8927C17.2122 11.5209 17.6736 12.0781 18.3017 12.1373C18.9298 12.1965 19.487 11.7352 19.5461 11.1071C19.6053 10.4789 19.144 9.92175 18.5158 9.86251C17.8879 9.80348 17.3307 10.2648 17.2715 10.8927Z" fill="white"/>
<path d="M12.7911 11.4568L6.97271 11.799C2.83233 12.0427 -0.280328 15.1459 0.0200329 18.7304C0.233739 21.2794 1.9166 23.5234 4.18448 24.6428C3.31856 26.9389 1.68238 27.43 1.68238 27.43C4.39212 27.3182 5.83218 26.1015 6.47371 25.3404C6.70647 25.3703 6.94173 25.3894 7.17909 25.3957L12.3129 25.5315C15.9662 25.6282 19.232 22.4178 19.6078 18.3612C19.9833 14.3045 16.9315 11.2132 12.7911 11.4568Z" fill="#B1CFFF"/>
<path d="M12.1428 18.4275C12.176 19.0575 12.714 19.5412 13.344 19.5077C13.974 19.4745 14.4577 18.9365 14.4242 18.3065C14.391 17.6765 13.853 17.1928 13.223 17.2262C12.593 17.2595 12.1093 17.7972 12.1428 18.4275Z" fill="#F1F5F9"/>
<path d="M7.93816 18.6482C7.97144 19.2782 8.50937 19.7619 9.1394 19.7284C9.76943 19.6952 10.2531 19.1572 10.2197 18.5272C10.1862 17.8972 9.64844 17.4135 9.01842 17.447C8.38839 17.4804 7.90467 18.0184 7.93816 18.6482Z" fill="#F1F5F9"/>
<path d="M3.73406 18.8706C3.76755 19.5007 4.30527 19.9844 4.9353 19.9511C5.56532 19.9176 6.04904 19.3799 6.01555 18.7499C5.98227 18.1198 5.44434 17.6361 4.81432 17.6696C4.18429 17.7029 3.70057 18.2406 3.73406 18.8706Z" fill="#F1F5F9"/>
<path d="M19.6076 18.3612C19.9831 14.3045 16.9314 11.2132 12.791 11.4568L12.7238 11.4608C12.2813 15.3117 15.2335 18.6266 19.3625 18.8861L19.5386 18.8972C19.5664 18.7201 19.5909 18.5418 19.6076 18.3612Z" fill="white"/>
<path d="M47.27 21.18C46.2 21.18 45.23 20.95 44.36 20.49C43.5 20.02 42.82 19.375 42.32 18.555C41.83 17.725 41.585 16.79 41.585 15.75C41.585 14.71 41.83 13.78 42.32 12.96C42.82 12.13 43.5 11.485 44.36 11.025C45.23 10.555 46.205 10.32 47.285 10.32C48.195 10.32 49.015 10.48 49.745 10.8C50.485 11.12 51.105 11.58 51.605 12.18L50.045 13.62C49.335 12.8 48.455 12.39 47.405 12.39C46.755 12.39 46.175 12.535 45.665 12.825C45.155 13.105 44.755 13.5 44.465 14.01C44.185 14.52 44.045 15.1 44.045 15.75C44.045 16.4 44.185 16.98 44.465 17.49C44.755 18 45.155 18.4 45.665 18.69C46.175 18.97 46.755 19.11 47.405 19.11C48.455 19.11 49.335 18.695 50.045 17.865L51.605 19.305C51.105 19.915 50.485 20.38 49.745 20.7C49.005 21.02 48.18 21.18 47.27 21.18ZM56.6427 21.12C55.7927 21.12 55.0277 20.945 54.3477 20.595C53.6777 20.235 53.1527 19.74 52.7727 19.11C52.3927 18.48 52.2027 17.765 52.2027 16.965C52.2027 16.165 52.3927 15.45 52.7727 14.82C53.1527 14.19 53.6777 13.7 54.3477 13.35C55.0277 12.99 55.7927 12.81 56.6427 12.81C57.4927 12.81 58.2527 12.99 58.9227 13.35C59.5927 13.7 60.1177 14.19 60.4977 14.82C60.8777 15.45 61.0677 16.165 61.0677 16.965C61.0677 17.765 60.8777 18.48 60.4977 19.11C60.1177 19.74 59.5927 20.235 58.9227 20.595C58.2527 20.945 57.4927 21.12 56.6427 21.12ZM56.6427 19.2C57.2427 19.2 57.7327 19 58.1127 18.6C58.5027 18.19 58.6977 17.645 58.6977 16.965C58.6977 16.285 58.5027 15.745 58.1127 15.345C57.7327 14.935 57.2427 14.73 56.6427 14.73C56.0427 14.73 55.5477 14.935 55.1577 15.345C54.7677 15.745 54.5727 16.285 54.5727 16.965C54.5727 17.645 54.7677 18.19 55.1577 18.6C55.5477 19 56.0427 19.2 56.6427 19.2ZM75.3968 12.93V17.385C75.3968 18.575 75.0718 19.495 74.4218 20.145C73.7718 20.795 72.8468 21.12 71.6468 21.12C71.0668 21.12 70.5518 21.03 70.1018 20.85C69.6618 20.67 69.2918 20.38 68.9918 19.98C68.6918 20.38 68.3218 20.67 67.8818 20.85C67.4418 21.03 66.9218 21.12 66.3218 21.12C65.1118 21.12 64.1868 20.795 63.5468 20.145C62.9068 19.495 62.5868 18.575 62.5868 17.385V12.93H64.9268V17.205C64.9268 17.875 65.0418 18.37 65.2718 18.69C65.5018 19 65.8618 19.155 66.3518 19.155C66.8518 19.155 67.2218 18.995 67.4618 18.675C67.7018 18.355 67.8218 17.865 67.8218 17.205V12.93H70.1618V17.205C70.1618 17.865 70.2818 18.355 70.5218 18.675C70.7618 18.995 71.1318 19.155 71.6318 19.155C72.1218 19.155 72.4818 19 72.7118 18.69C72.9418 18.37 73.0568 17.875 73.0568 17.205V12.93H75.3968ZM81.3399 21.12C80.4899 21.12 79.7249 20.945 79.0449 20.595C78.3749 20.235 77.8499 19.74 77.4699 19.11C77.0899 18.48 76.8999 17.765 76.8999 16.965C76.8999 16.165 77.0899 15.45 77.4699 14.82C77.8499 14.19 78.3749 13.7 79.0449 13.35C79.7249 12.99 80.4899 12.81 81.3399 12.81C82.1899 12.81 82.9499 12.99 83.6199 13.35C84.2899 13.7 84.8149 14.19 85.1949 14.82C85.5749 15.45 85.7649 16.165 85.7649 16.965C85.7649 17.765 85.5749 18.48 85.1949 19.11C84.8149 19.74 84.2899 20.235 83.6199 20.595C82.9499 20.945 82.1899 21.12 81.3399 21.12ZM81.3399 19.2C81.9399 19.2 82.4299 19 82.8099 18.6C83.1999 18.19 83.3949 17.645 83.3949 16.965C83.3949 16.285 83.1999 15.745 82.8099 15.345C82.4299 14.935 81.9399 14.73 81.3399 14.73C80.7399 14.73 80.2449 14.935 79.8549 15.345C79.4649 15.745 79.2699 16.285 79.2699 16.965C79.2699 17.645 79.4649 18.19 79.8549 18.6C80.2449 19 80.7399 19.2 81.3399 19.2ZM89.564 13.995C89.844 13.605 90.219 13.31 90.689 13.11C91.169 12.91 91.719 12.81 92.339 12.81V14.97C92.079 14.95 91.904 14.94 91.814 14.94C91.144 14.94 90.619 15.13 90.239 15.51C89.859 15.88 89.669 16.44 89.669 17.19V21H87.329V12.93H89.564V13.995ZM97.1954 17.835L96.0704 18.945V21H93.7304V9.87H96.0704V16.17L99.4904 12.93H102.28L98.9204 16.35L102.58 21H99.7454L97.1954 17.835ZM107.346 19.245C107.766 19.245 108.136 19.185 108.456 19.065C108.786 18.935 109.091 18.735 109.371 18.465L110.616 19.815C109.856 20.685 108.746 21.12 107.286 21.12C106.376 21.12 105.571 20.945 104.871 20.595C104.171 20.235 103.631 19.74 103.251 19.11C102.871 18.48 102.681 17.765 102.681 16.965C102.681 16.175 102.866 15.465 103.236 14.835C103.616 14.195 104.131 13.7 104.781 13.35C105.441 12.99 106.181 12.81 107.001 12.81C107.771 12.81 108.471 12.975 109.101 13.305C109.731 13.625 110.231 14.095 110.601 14.715C110.981 15.325 111.171 16.05 111.171 16.89L105.201 18.045C105.371 18.445 105.636 18.745 105.996 18.945C106.366 19.145 106.816 19.245 107.346 19.245ZM107.001 14.58C106.411 14.58 105.931 14.77 105.561 15.15C105.191 15.53 104.996 16.055 104.976 16.725L108.906 15.96C108.796 15.54 108.571 15.205 108.231 14.955C107.891 14.705 107.481 14.58 107.001 14.58ZM114.979 13.995C115.259 13.605 115.634 13.31 116.104 13.11C116.584 12.91 117.134 12.81 117.754 12.81V14.97C117.494 14.95 117.319 14.94 117.229 14.94C116.559 14.94 116.034 15.13 115.654 15.51C115.274 15.88 115.084 16.44 115.084 17.19V21H112.744V12.93H114.979V13.995ZM121.89 21.12C121.22 21.12 120.565 21.04 119.925 20.88C119.285 20.71 118.775 20.5 118.395 20.25L119.175 18.57C119.535 18.8 119.97 18.99 120.48 19.14C120.99 19.28 121.49 19.35 121.98 19.35C122.97 19.35 123.465 19.105 123.465 18.615C123.465 18.385 123.33 18.22 123.06 18.12C122.79 18.02 122.375 17.935 121.815 17.865C121.155 17.765 120.61 17.65 120.18 17.52C119.75 17.39 119.375 17.16 119.055 16.83C118.745 16.5 118.59 16.03 118.59 15.42C118.59 14.91 118.735 14.46 119.025 14.07C119.325 13.67 119.755 13.36 120.315 13.14C120.885 12.92 121.555 12.81 122.325 12.81C122.895 12.81 123.46 12.875 124.02 13.005C124.59 13.125 125.06 13.295 125.43 13.515L124.65 15.18C123.94 14.78 123.165 14.58 122.325 14.58C121.825 14.58 121.45 14.65 121.2 14.79C120.95 14.93 120.825 15.11 120.825 15.33C120.825 15.58 120.96 15.755 121.23 15.855C121.5 15.955 121.93 16.05 122.52 16.14C123.18 16.25 123.72 16.37 124.14 16.5C124.56 16.62 124.925 16.845 125.235 17.175C125.545 17.505 125.7 17.965 125.7 18.555C125.7 19.055 125.55 19.5 125.25 19.89C124.95 20.28 124.51 20.585 123.93 20.805C123.36 21.015 122.68 21.12 121.89 21.12Z" fill="#5189FA"/>
</svg>
