<svg width="144" height="24" viewBox="0 0 144 24" fill="none" xmlns="http://www.w3.org/2000/svg">
<path d="M48.524 19.216C47.24 19.216 46.076 18.94 45.032 18.388C44 17.824 43.184 17.05 42.584 16.066C41.996 15.07 41.702 13.948 41.702 12.7C41.702 11.452 41.996 10.336 42.584 9.352C43.184 8.356 44 7.582 45.032 7.03C46.076 6.466 47.246 6.184 48.542 6.184C49.634 6.184 50.618 6.376 51.494 6.76C52.382 7.144 53.126 7.696 53.726 8.416L51.854 10.144C51.002 9.16 49.946 8.668 48.686 8.668C47.906 8.668 47.21 8.842 46.598 9.19C45.986 9.526 45.506 10 45.158 10.612C44.822 11.224 44.654 11.92 44.654 12.7C44.654 13.48 44.822 14.176 45.158 14.788C45.506 15.4 45.986 15.88 46.598 16.228C47.21 16.564 47.906 16.732 48.686 16.732C49.946 16.732 51.002 16.234 51.854 15.238L53.726 16.966C53.126 17.698 52.382 18.256 51.494 18.64C50.606 19.024 49.616 19.216 48.524 19.216ZM59.7712 19.144C58.7512 19.144 57.8332 18.934 57.0172 18.514C56.2132 18.082 55.5832 17.488 55.1272 16.732C54.6712 15.976 54.4432 15.118 54.4432 14.158C54.4432 13.198 54.6712 12.34 55.1272 11.584C55.5832 10.828 56.2132 10.24 57.0172 9.82C57.8332 9.388 58.7512 9.172 59.7712 9.172C60.7912 9.172 61.7032 9.388 62.5072 9.82C63.3112 10.24 63.9412 10.828 64.3972 11.584C64.8532 12.34 65.0812 13.198 65.0812 14.158C65.0812 15.118 64.8532 15.976 64.3972 16.732C63.9412 17.488 63.3112 18.082 62.5072 18.514C61.7032 18.934 60.7912 19.144 59.7712 19.144ZM59.7712 16.84C60.4912 16.84 61.0792 16.6 61.5352 16.12C62.0032 15.628 62.2372 14.974 62.2372 14.158C62.2372 13.342 62.0032 12.694 61.5352 12.214C61.0792 11.722 60.4912 11.476 59.7712 11.476C59.0512 11.476 58.4572 11.722 57.9892 12.214C57.5212 12.694 57.2872 13.342 57.2872 14.158C57.2872 14.974 57.5212 15.628 57.9892 16.12C58.4572 16.6 59.0512 16.84 59.7712 16.84ZM82.2761 9.316V14.662C82.2761 16.09 81.8861 17.194 81.1061 17.974C80.3261 18.754 79.2161 19.144 77.7761 19.144C77.0801 19.144 76.4621 19.036 75.9221 18.82C75.3941 18.604 74.9501 18.256 74.5901 17.776C74.2301 18.256 73.7861 18.604 73.2581 18.82C72.7301 19.036 72.1061 19.144 71.3861 19.144C69.9341 19.144 68.8241 18.754 68.0561 17.974C67.2881 17.194 66.9041 16.09 66.9041 14.662V9.316H69.7121V14.446C69.7121 15.25 69.8501 15.844 70.1261 16.228C70.4021 16.6 70.8341 16.786 71.4221 16.786C72.0221 16.786 72.4661 16.594 72.7541 16.21C73.0421 15.826 73.1861 15.238 73.1861 14.446V9.316H75.9941V14.446C75.9941 15.238 76.1381 15.826 76.4261 16.21C76.7141 16.594 77.1581 16.786 77.7581 16.786C78.3461 16.786 78.7781 16.6 79.0541 16.228C79.3301 15.844 79.4681 15.25 79.4681 14.446V9.316H82.2761ZM89.4079 19.144C88.3879 19.144 87.4699 18.934 86.6539 18.514C85.8499 18.082 85.2199 17.488 84.7639 16.732C84.3079 15.976 84.0799 15.118 84.0799 14.158C84.0799 13.198 84.3079 12.34 84.7639 11.584C85.2199 10.828 85.8499 10.24 86.6539 9.82C87.4699 9.388 88.3879 9.172 89.4079 9.172C90.4279 9.172 91.3399 9.388 92.1439 9.82C92.9479 10.24 93.5779 10.828 94.0339 11.584C94.4899 12.34 94.7179 13.198 94.7179 14.158C94.7179 15.118 94.4899 15.976 94.0339 16.732C93.5779 17.488 92.9479 18.082 92.1439 18.514C91.3399 18.934 90.4279 19.144 89.4079 19.144ZM89.4079 16.84C90.1279 16.84 90.7159 16.6 91.1719 16.12C91.6399 15.628 91.8739 14.974 91.8739 14.158C91.8739 13.342 91.6399 12.694 91.1719 12.214C90.7159 11.722 90.1279 11.476 89.4079 11.476C88.6879 11.476 88.0939 11.722 87.6259 12.214C87.1579 12.694 86.9239 13.342 86.9239 14.158C86.9239 14.974 87.1579 15.628 87.6259 16.12C88.0939 16.6 88.6879 16.84 89.4079 16.84ZM99.2768 10.594C99.6128 10.126 100.063 9.772 100.627 9.532C101.203 9.292 101.863 9.172 102.607 9.172V11.764C102.295 11.74 102.085 11.728 101.977 11.728C101.173 11.728 100.543 11.956 100.087 12.412C99.6308 12.856 99.4028 13.528 99.4028 14.428V19H96.5948V9.316H99.2768V10.594ZM108.434 15.202L107.084 16.534V19H104.276V5.644H107.084V13.204L111.188 9.316H114.536L110.504 13.42L114.896 19H111.494L108.434 15.202ZM120.615 16.894C121.119 16.894 121.563 16.822 121.947 16.678C122.343 16.522 122.709 16.282 123.045 15.958L124.539 17.578C123.627 18.622 122.295 19.144 120.543 19.144C119.451 19.144 118.485 18.934 117.645 18.514C116.805 18.082 116.157 17.488 115.701 16.732C115.245 15.976 115.017 15.118 115.017 14.158C115.017 13.21 115.239 12.358 115.683 11.602C116.139 10.834 116.757 10.24 117.537 9.82C118.329 9.388 119.217 9.172 120.201 9.172C121.125 9.172 121.965 9.37 122.721 9.766C123.477 10.15 124.077 10.714 124.521 11.458C124.977 12.19 125.205 13.06 125.205 14.068L118.041 15.454C118.245 15.934 118.563 16.294 118.995 16.534C119.439 16.774 119.979 16.894 120.615 16.894ZM120.201 11.296C119.493 11.296 118.917 11.524 118.473 11.98C118.029 12.436 117.795 13.066 117.771 13.87L122.487 12.952C122.355 12.448 122.085 12.046 121.677 11.746C121.269 11.446 120.777 11.296 120.201 11.296ZM129.775 10.594C130.111 10.126 130.561 9.772 131.125 9.532C131.701 9.292 132.361 9.172 133.105 9.172V11.764C132.793 11.74 132.583 11.728 132.475 11.728C131.671 11.728 131.041 11.956 130.585 12.412C130.129 12.856 129.901 13.528 129.901 14.428V19H127.093V9.316H129.775V10.594ZM138.068 19.144C137.264 19.144 136.478 19.048 135.71 18.856C134.942 18.652 134.33 18.4 133.874 18.1L134.81 16.084C135.242 16.36 135.764 16.588 136.376 16.768C136.988 16.936 137.588 17.02 138.176 17.02C139.364 17.02 139.958 16.726 139.958 16.138C139.958 15.862 139.796 15.664 139.472 15.544C139.148 15.424 138.65 15.322 137.978 15.238C137.186 15.118 136.532 14.98 136.016 14.824C135.5 14.668 135.05 14.392 134.666 13.996C134.294 13.6 134.108 13.036 134.108 12.304C134.108 11.692 134.282 11.152 134.63 10.684C134.99 10.204 135.506 9.832 136.178 9.568C136.862 9.304 137.666 9.172 138.59 9.172C139.274 9.172 139.952 9.25 140.624 9.406C141.308 9.55 141.872 9.754 142.316 10.018L141.38 12.016C140.528 11.536 139.598 11.296 138.59 11.296C137.99 11.296 137.54 11.38 137.24 11.548C136.94 11.716 136.79 11.932 136.79 12.196C136.79 12.496 136.952 12.706 137.276 12.826C137.6 12.946 138.116 13.06 138.824 13.168C139.616 13.3 140.264 13.444 140.768 13.6C141.272 13.744 141.71 14.014 142.082 14.41C142.454 14.806 142.64 15.358 142.64 16.066C142.64 16.666 142.46 17.2 142.1 17.668C141.74 18.136 141.212 18.502 140.516 18.766C139.832 19.018 139.016 19.144 138.068 19.144Z" fill="#5189FA"/>
<path d="M36.7444 15.1572C36.7444 15.1572 34.4993 15.0645 32.8525 12.2298C33.5219 11.0869 33.8495 9.70494 33.7203 8.19178C33.3564 3.92876 30.0387 0.355066 26.3101 0.209376L21.0703 0.00479433C17.3417 -0.140896 13.893 3.05176 13.3674 7.13548C12.8418 11.2194 15.9577 14.7525 20.3273 15.0274L26.4676 15.4134C28.1915 15.5218 29.7392 15.0825 30.9607 14.251C31.9034 14.9036 33.8062 15.7791 36.7444 15.1572Z" fill="#5189FA"/>
<path d="M26.9341 7.46827C26.8719 8.12772 27.3562 8.71268 28.0157 8.77487C28.6751 8.83705 29.2601 8.35274 29.3223 7.69329C29.3844 7.03384 28.9001 6.44888 28.2407 6.38669C27.5812 6.32472 26.9963 6.80882 26.9341 7.46827Z" fill="#B1CFFF"/>
<path d="M22.5327 7.04951C22.4705 7.70896 22.9548 8.29392 23.6143 8.35588C24.2738 8.41807 24.8587 7.93376 24.9207 7.27431C24.9829 6.61486 24.4986 6.0299 23.8391 5.96771C23.1796 5.90596 22.5947 6.39006 22.5327 7.04951Z" fill="#B1CFFF"/>
<path d="M18.1323 6.63721C18.0701 7.29666 18.5545 7.88162 19.2139 7.94381C19.8734 8.006 20.4583 7.52168 20.5203 6.86223C20.5825 6.20278 20.0982 5.61782 19.4387 5.55563C18.7795 5.49367 18.1945 5.97798 18.1323 6.63721Z" fill="#B1CFFF"/>
<path d="M13.4287 7.22898L7.32026 7.58826C2.97351 7.84404 -0.294301 11.102 0.0210314 14.8651C0.24539 17.5411 2.01213 19.897 4.39305 21.0722C3.48397 23.4828 1.76624 23.9983 1.76624 23.9983C4.61104 23.8809 6.12288 22.6036 6.79639 21.8046C7.04075 21.836 7.28774 21.856 7.53692 21.8626L12.9266 22.0052C16.762 22.1067 20.1906 18.7363 20.5851 14.4774C20.9793 10.2186 17.7754 6.9732 13.4287 7.22898Z" fill="#B1CFFF"/>
<path d="M12.7478 14.5455C12.7828 15.207 13.3475 15.7148 14.0089 15.6796C14.6704 15.6447 15.1782 15.08 15.143 14.4185C15.1081 13.7571 14.5433 13.2493 13.8819 13.2844C13.2205 13.3194 12.7127 13.8839 12.7478 14.5455Z" fill="#F1F5F9"/>
<path d="M8.33473 14.7799C8.36967 15.4413 8.93441 15.9492 9.59584 15.914C10.2573 15.8791 10.7651 15.3143 10.7299 14.6529C10.6948 13.9915 10.1303 13.4837 9.46883 13.5188C8.8074 13.554 8.29957 14.1187 8.33473 14.7799Z" fill="#F1F5F9"/>
<path d="M3.92067 15.0136C3.95583 15.675 4.52035 16.1828 5.18177 16.1479C5.8432 16.1127 6.35103 15.5482 6.31587 14.8868C6.28094 14.2254 5.71619 13.7175 5.05477 13.7527C4.39334 13.7876 3.88551 14.3522 3.92067 15.0136Z" fill="#F1F5F9"/>
<path d="M20.5845 14.4774C20.9788 10.2186 17.7749 6.9732 13.4281 7.22898L13.3576 7.23316C12.8931 11.276 15.9923 14.7561 20.3272 15.0286L20.512 15.0402C20.5412 14.8543 20.567 14.6671 20.5845 14.4774Z" fill="white"/>
</svg>
