<svg width="158" height="22" viewBox="0 0 158 22" fill="none" xmlns="http://www.w3.org/2000/svg">
<path d="M10.6122 21.1114C8.61487 21.1114 6.8042 20.6821 5.1802 19.8234C3.57487 18.9461 2.30554 17.7421 1.3722 16.2114C0.457537 14.6621 0.000203148 12.9167 0.000203148 10.9754C0.000203148 9.03406 0.457537 7.29806 1.3722 5.76739C2.30554 4.21806 3.57487 3.01406 5.1802 2.15539C6.8042 1.27806 8.6242 0.83939 10.6402 0.83939C12.3389 0.83939 13.8695 1.13806 15.2322 1.73539C16.6135 2.33272 17.7709 3.19139 18.7042 4.31139L15.7922 6.99939C14.4669 5.46872 12.8242 4.70339 10.8642 4.70339C9.65087 4.70339 8.5682 4.97406 7.6162 5.51539C6.6642 6.03806 5.91754 6.77539 5.3762 7.72739C4.85354 8.67939 4.5922 9.76206 4.5922 10.9754C4.5922 12.1887 4.85354 13.2714 5.3762 14.2234C5.91754 15.1754 6.6642 15.9221 7.6162 16.4634C8.5682 16.9861 9.65087 17.2474 10.8642 17.2474C12.8242 17.2474 14.4669 16.4727 15.7922 14.9234L18.7042 17.6114C17.7709 18.7501 16.6135 19.6181 15.2322 20.2154C13.8509 20.8127 12.3109 21.1114 10.6122 21.1114ZM28.1078 20.9994C26.5212 20.9994 25.0932 20.6727 23.8238 20.0194C22.5732 19.3474 21.5932 18.4234 20.8838 17.2474C20.1745 16.0714 19.8198 14.7367 19.8198 13.2434C19.8198 11.7501 20.1745 10.4154 20.8838 9.23939C21.5932 8.06339 22.5732 7.14872 23.8238 6.49539C25.0932 5.82339 26.5212 5.48739 28.1078 5.48739C29.6945 5.48739 31.1132 5.82339 32.3638 6.49539C33.6145 7.14872 34.5945 8.06339 35.3038 9.23939C36.0132 10.4154 36.3678 11.7501 36.3678 13.2434C36.3678 14.7367 36.0132 16.0714 35.3038 17.2474C34.5945 18.4234 33.6145 19.3474 32.3638 20.0194C31.1132 20.6727 29.6945 20.9994 28.1078 20.9994ZM28.1078 17.4154C29.2278 17.4154 30.1425 17.0421 30.8518 16.2954C31.5798 15.5301 31.9438 14.5127 31.9438 13.2434C31.9438 11.9741 31.5798 10.9661 30.8518 10.2194C30.1425 9.45406 29.2278 9.07139 28.1078 9.07139C26.9878 9.07139 26.0638 9.45406 25.3358 10.2194C24.6078 10.9661 24.2438 11.9741 24.2438 13.2434C24.2438 14.5127 24.6078 15.5301 25.3358 16.2954C26.0638 17.0421 26.9878 17.4154 28.1078 17.4154ZM63.1155 5.71139V14.0274C63.1155 16.2487 62.5088 17.9661 61.2955 19.1794C60.0822 20.3927 58.3555 20.9994 56.1155 20.9994C55.0328 20.9994 54.0715 20.8314 53.2315 20.4954C52.4102 20.1594 51.7195 19.6181 51.1595 18.8714C50.5995 19.6181 49.9088 20.1594 49.0875 20.4954C48.2662 20.8314 47.2955 20.9994 46.1755 20.9994C43.9168 20.9994 42.1902 20.3927 40.9955 19.1794C39.8008 17.9661 39.2035 16.2487 39.2035 14.0274V5.71139H43.5715V13.6914C43.5715 14.9421 43.7862 15.8661 44.2155 16.4634C44.6448 17.0421 45.3168 17.3314 46.2315 17.3314C47.1648 17.3314 47.8555 17.0327 48.3035 16.4354C48.7515 15.8381 48.9755 14.9234 48.9755 13.6914V5.71139H53.3435V13.6914C53.3435 14.9234 53.5675 15.8381 54.0155 16.4354C54.4635 17.0327 55.1542 17.3314 56.0875 17.3314C57.0022 17.3314 57.6742 17.0421 58.1035 16.4634C58.5328 15.8661 58.7475 14.9421 58.7475 13.6914V5.71139H63.1155ZM74.2094 20.9994C72.6227 20.9994 71.1947 20.6727 69.9254 20.0194C68.6747 19.3474 67.6947 18.4234 66.9854 17.2474C66.2761 16.0714 65.9214 14.7367 65.9214 13.2434C65.9214 11.7501 66.2761 10.4154 66.9854 9.23939C67.6947 8.06339 68.6747 7.14872 69.9254 6.49539C71.1947 5.82339 72.6227 5.48739 74.2094 5.48739C75.7961 5.48739 77.2147 5.82339 78.4654 6.49539C79.7161 7.14872 80.6961 8.06339 81.4054 9.23939C82.1147 10.4154 82.4694 11.7501 82.4694 13.2434C82.4694 14.7367 82.1147 16.0714 81.4054 17.2474C80.6961 18.4234 79.7161 19.3474 78.4654 20.0194C77.2147 20.6727 75.7961 20.9994 74.2094 20.9994ZM74.2094 17.4154C75.3294 17.4154 76.2441 17.0421 76.9534 16.2954C77.6814 15.5301 78.0454 14.5127 78.0454 13.2434C78.0454 11.9741 77.6814 10.9661 76.9534 10.2194C76.2441 9.45406 75.3294 9.07139 74.2094 9.07139C73.0894 9.07139 72.1654 9.45406 71.4374 10.2194C70.7094 10.9661 70.3454 11.9741 70.3454 13.2434C70.3454 14.5127 70.7094 15.5301 71.4374 16.2954C72.1654 17.0421 73.0894 17.4154 74.2094 17.4154ZM89.561 7.69939C90.0837 6.97139 90.7837 6.42072 91.661 6.04739C92.557 5.67406 93.5837 5.48739 94.741 5.48739V9.51939C94.2557 9.48206 93.929 9.46339 93.761 9.46339C92.5104 9.46339 91.5304 9.81806 90.821 10.5274C90.1117 11.2181 89.757 12.2634 89.757 13.6634V20.7754H85.389V5.71139H89.561V7.69939ZM103.806 14.8674L101.706 16.9394V20.7754H97.3383V-0.00061059H101.706V11.7594L108.09 5.71139H113.298L107.026 12.0954L113.858 20.7754H108.566L103.806 14.8674ZM122.754 17.4994C123.538 17.4994 124.229 17.3874 124.826 17.1634C125.442 16.9207 126.012 16.5474 126.534 16.0434L128.858 18.5634C127.44 20.1874 125.368 20.9994 122.642 20.9994C120.944 20.9994 119.441 20.6727 118.134 20.0194C116.828 19.3474 115.82 18.4234 115.11 17.2474C114.401 16.0714 114.046 14.7367 114.046 13.2434C114.046 11.7687 114.392 10.4434 115.082 9.26739C115.792 8.07272 116.753 7.14872 117.966 6.49539C119.198 5.82339 120.58 5.48739 122.11 5.48739C123.548 5.48739 124.854 5.79539 126.03 6.41139C127.206 7.00872 128.14 7.88606 128.83 9.04339C129.54 10.1821 129.894 11.5354 129.894 13.1034L118.75 15.2594C119.068 16.0061 119.562 16.5661 120.234 16.9394C120.925 17.3127 121.765 17.4994 122.754 17.4994ZM122.11 8.79139C121.009 8.79139 120.113 9.14606 119.422 9.85539C118.732 10.5647 118.368 11.5447 118.33 12.7954L125.666 11.3674C125.461 10.5834 125.041 9.95806 124.406 9.49139C123.772 9.02472 123.006 8.79139 122.11 8.79139ZM137.002 7.69939C137.525 6.97139 138.225 6.42072 139.102 6.04739C139.998 5.67406 141.025 5.48739 142.182 5.48739V9.51939C141.697 9.48206 141.37 9.46339 141.202 9.46339C139.952 9.46339 138.972 9.81806 138.262 10.5274C137.553 11.2181 137.198 12.2634 137.198 13.6634V20.7754H132.83V5.71139H137.002V7.69939ZM149.902 20.9994C148.652 20.9994 147.429 20.8501 146.234 20.5514C145.04 20.2341 144.088 19.8421 143.378 19.3754L144.834 16.2394C145.506 16.6687 146.318 17.0234 147.27 17.3034C148.222 17.5647 149.156 17.6954 150.07 17.6954C151.918 17.6954 152.842 17.2381 152.842 16.3234C152.842 15.8941 152.59 15.5861 152.086 15.3994C151.582 15.2127 150.808 15.0541 149.762 14.9234C148.53 14.7367 147.513 14.5221 146.71 14.2794C145.908 14.0367 145.208 13.6074 144.61 12.9914C144.032 12.3754 143.742 11.4981 143.742 10.3594C143.742 9.40739 144.013 8.56739 144.554 7.83939C145.114 7.09272 145.917 6.51406 146.962 6.10339C148.026 5.69272 149.277 5.48739 150.714 5.48739C151.778 5.48739 152.833 5.60872 153.878 5.85139C154.942 6.07539 155.82 6.39272 156.51 6.80339L155.054 9.91139C153.729 9.16472 152.282 8.79139 150.714 8.79139C149.781 8.79139 149.081 8.92206 148.614 9.18339C148.148 9.44472 147.914 9.78072 147.914 10.1914C147.914 10.6581 148.166 10.9847 148.67 11.1714C149.174 11.3581 149.977 11.5354 151.078 11.7034C152.31 11.9087 153.318 12.1327 154.102 12.3754C154.886 12.5994 155.568 13.0194 156.146 13.6354C156.725 14.2514 157.014 15.1101 157.014 16.2114C157.014 17.1447 156.734 17.9754 156.174 18.7034C155.614 19.4314 154.793 20.0007 153.71 20.4114C152.646 20.8034 151.377 20.9994 149.902 20.9994Z" fill="#5189FA"/>
</svg>
