<svg width="87" height="15" viewBox="0 0 87 15" fill="none" xmlns="http://www.w3.org/2000/svg">
<path d="M28.598 10.132C27.8133 10.132 27.102 9.96333 26.464 9.626C25.8333 9.28133 25.3347 8.80833 24.968 8.207C24.6087 7.59833 24.429 6.91267 24.429 6.15C24.429 5.38733 24.6087 4.70533 24.968 4.104C25.3347 3.49533 25.8333 3.02233 26.464 2.685C27.102 2.34033 27.817 2.168 28.609 2.168C29.2763 2.168 29.8777 2.28533 30.413 2.52C30.9557 2.75467 31.4103 3.092 31.777 3.532L30.633 4.588C30.1123 3.98667 29.467 3.686 28.697 3.686C28.2203 3.686 27.795 3.79233 27.421 4.005C27.047 4.21033 26.7537 4.5 26.541 4.874C26.3357 5.248 26.233 5.67333 26.233 6.15C26.233 6.62667 26.3357 7.052 26.541 7.426C26.7537 7.8 27.047 8.09333 27.421 8.306C27.795 8.51133 28.2203 8.614 28.697 8.614C29.467 8.614 30.1123 8.30967 30.633 7.701L31.777 8.757C31.4103 9.20433 30.9557 9.54533 30.413 9.78C29.8703 10.0147 29.2653 10.132 28.598 10.132ZM35.4713 10.088C34.8479 10.088 34.2869 9.95967 33.7883 9.703C33.2969 9.439 32.9119 9.076 32.6333 8.614C32.3546 8.152 32.2153 7.62767 32.2153 7.041C32.2153 6.45433 32.3546 5.93 32.6333 5.468C32.9119 5.006 33.2969 4.64667 33.7883 4.39C34.2869 4.126 34.8479 3.994 35.4713 3.994C36.0946 3.994 36.6519 4.126 37.1433 4.39C37.6346 4.64667 38.0196 5.006 38.2983 5.468C38.5769 5.93 38.7163 6.45433 38.7163 7.041C38.7163 7.62767 38.5769 8.152 38.2983 8.614C38.0196 9.076 37.6346 9.439 37.1433 9.703C36.6519 9.95967 36.0946 10.088 35.4713 10.088ZM35.4713 8.68C35.9113 8.68 36.2706 8.53333 36.5493 8.24C36.8353 7.93933 36.9783 7.53967 36.9783 7.041C36.9783 6.54233 36.8353 6.14633 36.5493 5.853C36.2706 5.55233 35.9113 5.402 35.4713 5.402C35.0313 5.402 34.6683 5.55233 34.3823 5.853C34.0963 6.14633 33.9533 6.54233 33.9533 7.041C33.9533 7.53967 34.0963 7.93933 34.3823 8.24C34.6683 8.53333 35.0313 8.68 35.4713 8.68ZM49.2243 4.082V7.349C49.2243 8.22167 48.986 8.89633 48.5093 9.373C48.0326 9.84967 47.3543 10.088 46.4743 10.088C46.049 10.088 45.6713 10.022 45.3413 9.89C45.0186 9.758 44.7473 9.54533 44.5273 9.252C44.3073 9.54533 44.036 9.758 43.7133 9.89C43.3906 10.022 43.0093 10.088 42.5693 10.088C41.682 10.088 41.0036 9.84967 40.5343 9.373C40.065 8.89633 39.8303 8.22167 39.8303 7.349V4.082H41.5463V7.217C41.5463 7.70833 41.6306 8.07133 41.7993 8.306C41.968 8.53333 42.232 8.647 42.5913 8.647C42.958 8.647 43.2293 8.52967 43.4053 8.295C43.5813 8.06033 43.6693 7.701 43.6693 7.217V4.082H45.3853V7.217C45.3853 7.701 45.4733 8.06033 45.6493 8.295C45.8253 8.52967 46.0966 8.647 46.4633 8.647C46.8226 8.647 47.0866 8.53333 47.2553 8.306C47.424 8.07133 47.5083 7.70833 47.5083 7.217V4.082H49.2243ZM53.5826 10.088C52.9593 10.088 52.3983 9.95967 51.8996 9.703C51.4083 9.439 51.0233 9.076 50.7446 8.614C50.4659 8.152 50.3266 7.62767 50.3266 7.041C50.3266 6.45433 50.4659 5.93 50.7446 5.468C51.0233 5.006 51.4083 4.64667 51.8996 4.39C52.3983 4.126 52.9593 3.994 53.5826 3.994C54.2059 3.994 54.7633 4.126 55.2546 4.39C55.7459 4.64667 56.1309 5.006 56.4096 5.468C56.6883 5.93 56.8276 6.45433 56.8276 7.041C56.8276 7.62767 56.6883 8.152 56.4096 8.614C56.1309 9.076 55.7459 9.439 55.2546 9.703C54.7633 9.95967 54.2059 10.088 53.5826 10.088ZM53.5826 8.68C54.0226 8.68 54.3819 8.53333 54.6606 8.24C54.9466 7.93933 55.0896 7.53967 55.0896 7.041C55.0896 6.54233 54.9466 6.14633 54.6606 5.853C54.3819 5.55233 54.0226 5.402 53.5826 5.402C53.1426 5.402 52.7796 5.55233 52.4936 5.853C52.2076 6.14633 52.0646 6.54233 52.0646 7.041C52.0646 7.53967 52.2076 7.93933 52.4936 8.24C52.7796 8.53333 53.1426 8.68 53.5826 8.68ZM59.6136 4.863C59.819 4.577 60.094 4.36067 60.4386 4.214C60.7906 4.06733 61.194 3.994 61.6486 3.994V5.578C61.458 5.56333 61.3296 5.556 61.2636 5.556C60.7723 5.556 60.3873 5.69533 60.1086 5.974C59.83 6.24533 59.6906 6.656 59.6906 7.206V10H57.9746V4.082H59.6136V4.863ZM65.21 7.679L64.385 8.493V10H62.669V1.838H64.385V6.458L66.893 4.082H68.939L66.475 6.59L69.159 10H67.08L65.21 7.679ZM72.6539 8.713C72.9619 8.713 73.2332 8.669 73.4679 8.581C73.7099 8.48567 73.9335 8.339 74.1389 8.141L75.0519 9.131C74.4945 9.769 73.6805 10.088 72.6099 10.088C71.9425 10.088 71.3522 9.95967 70.8389 9.703C70.3255 9.439 69.9295 9.076 69.6509 8.614C69.3722 8.152 69.2329 7.62767 69.2329 7.041C69.2329 6.46167 69.3685 5.941 69.6399 5.479C69.9185 5.00967 70.2962 4.64667 70.7729 4.39C71.2569 4.126 71.7995 3.994 72.4009 3.994C72.9655 3.994 73.4789 4.115 73.9409 4.357C74.4029 4.59167 74.7695 4.93633 75.0409 5.391C75.3195 5.83833 75.4589 6.37 75.4589 6.986L71.0809 7.833C71.2055 8.12633 71.3999 8.34633 71.6639 8.493C71.9352 8.63967 72.2652 8.713 72.6539 8.713ZM72.4009 5.292C71.9682 5.292 71.6162 5.43133 71.3449 5.71C71.0735 5.98867 70.9305 6.37367 70.9159 6.865L73.7979 6.304C73.7172 5.996 73.5522 5.75033 73.3029 5.567C73.0535 5.38367 72.7529 5.292 72.4009 5.292ZM78.2513 4.863C78.4566 4.577 78.7316 4.36067 79.0763 4.214C79.4283 4.06733 79.8316 3.994 80.2863 3.994V5.578C80.0956 5.56333 79.9673 5.556 79.9013 5.556C79.41 5.556 79.025 5.69533 78.7463 5.974C78.4676 6.24533 78.3283 6.656 78.3283 7.206V10H76.6123V4.082H78.2513V4.863ZM83.3191 10.088C82.8278 10.088 82.3475 10.0293 81.8781 9.912C81.4088 9.78733 81.0348 9.63333 80.7561 9.45L81.3281 8.218C81.5921 8.38667 81.9111 8.526 82.2851 8.636C82.6591 8.73867 83.0258 8.79 83.3851 8.79C84.1111 8.79 84.4741 8.61033 84.4741 8.251C84.4741 8.08233 84.3751 7.96133 84.1771 7.888C83.9791 7.81467 83.6748 7.75233 83.2641 7.701C82.7801 7.62767 82.3805 7.54333 82.0651 7.448C81.7498 7.35267 81.4748 7.184 81.2401 6.942C81.0128 6.7 80.8991 6.35533 80.8991 5.908C80.8991 5.534 81.0055 5.204 81.2181 4.918C81.4381 4.62467 81.7535 4.39733 82.1641 4.236C82.5821 4.07467 83.0735 3.994 83.6381 3.994C84.0561 3.994 84.4705 4.04167 84.8811 4.137C85.2991 4.225 85.6438 4.34967 85.9151 4.511L85.3431 5.732C84.8225 5.43867 84.2541 5.292 83.6381 5.292C83.2715 5.292 82.9965 5.34333 82.8131 5.446C82.6298 5.54867 82.5381 5.68067 82.5381 5.842C82.5381 6.02533 82.6371 6.15367 82.8351 6.227C83.0331 6.30033 83.3485 6.37 83.7811 6.436C84.2651 6.51667 84.6611 6.60467 84.9691 6.7C85.2771 6.788 85.5448 6.953 85.7721 7.195C85.9995 7.437 86.1131 7.77433 86.1131 8.207C86.1131 8.57367 86.0031 8.9 85.7831 9.186C85.5631 9.472 85.2405 9.69567 84.8151 9.857C84.3971 10.011 83.8985 10.088 83.3191 10.088Z" fill="#5189FA"/>
<path d="M21.9999 9.07506C21.9999 9.07506 20.6556 9.01954 19.6697 7.32233C20.0704 6.63805 20.2666 5.81063 20.1892 4.90466C19.9714 2.35226 17.985 0.212588 15.7525 0.125359L12.6153 0.0028705C10.3829 -0.0843583 8.31808 1.82718 8.00338 4.27221C7.68867 6.71738 9.55429 8.83272 12.1705 8.99731L15.8469 9.22847C16.879 9.29333 17.8056 9.03033 18.537 8.53248C19.1014 8.92324 20.2407 9.4474 21.9999 9.07506Z" fill="#5189FA"/>
<path d="M16.1263 4.47206C16.089 4.86689 16.379 5.21712 16.7738 5.25436C17.1687 5.29159 17.5189 5.00162 17.5561 4.60679C17.5934 4.21195 17.3034 3.86172 16.9086 3.82449C16.5137 3.78739 16.1635 4.07723 16.1263 4.47206Z" fill="#B1CFFF"/>
<path d="M13.4905 4.22119C13.4533 4.61603 13.7433 4.96626 14.1381 5.00336C14.5329 5.04059 14.8832 4.75062 14.9203 4.35579C14.9575 3.96095 14.6675 3.61072 14.2727 3.57349C13.8779 3.53652 13.5276 3.82636 13.4905 4.22119Z" fill="#B1CFFF"/>
<path d="M10.8567 3.97401C10.8195 4.36884 11.1095 4.71908 11.5043 4.75631C11.8991 4.79354 12.2494 4.50357 12.2865 4.10874C12.3237 3.7139 12.0337 3.36367 11.6389 3.32644C11.2442 3.28934 10.894 3.57931 10.8567 3.97401Z" fill="#B1CFFF"/>
<path d="M8.04015 4.3278L4.38285 4.54291C1.78032 4.69606 -0.176206 6.64667 0.0125921 8.89975C0.146922 10.502 1.20472 11.9125 2.63025 12.6161C2.08595 14.0594 1.0575 14.3681 1.0575 14.3681C2.76076 14.2978 3.66594 13.533 4.06919 13.0546C4.2155 13.0734 4.36338 13.0854 4.51257 13.0894L7.73951 13.1748C10.0359 13.2355 12.0887 11.2176 12.3249 8.66767C12.5609 6.11777 10.6427 4.17466 8.04015 4.3278Z" fill="#B1CFFF"/>
<path d="M7.63287 8.70922C7.65379 9.10523 7.99191 9.40928 8.38793 9.38823C8.78394 9.36731 9.088 9.02919 9.06694 8.63317C9.04603 8.23716 8.7079 7.9331 8.31188 7.95416C7.91587 7.97507 7.61182 8.31307 7.63287 8.70922Z" fill="#F1F5F9"/>
<path d="M4.99029 8.84984C5.01121 9.24586 5.34934 9.54991 5.74535 9.52886C6.14137 9.50794 6.44542 9.16981 6.42437 8.7738C6.40332 8.37778 6.06532 8.07373 5.66931 8.09478C5.27329 8.11583 4.96924 8.45396 4.99029 8.84984Z" fill="#F1F5F9"/>
<path d="M2.34771 8.98936C2.36876 9.38538 2.70676 9.68943 3.10277 9.66851C3.49879 9.64746 3.80284 9.30946 3.78179 8.91344C3.76087 8.51743 3.42274 8.21338 3.02673 8.23443C2.63071 8.25535 2.32666 8.59334 2.34771 8.98936Z" fill="#F1F5F9"/>
<path d="M12.3243 8.66767C12.5603 6.11777 10.6421 4.17466 8.03955 4.3278L7.99732 4.3303C7.71918 6.75087 9.5748 8.83449 12.1702 8.99764L12.2809 9.00461C12.2984 8.8933 12.3138 8.78121 12.3243 8.66767Z" fill="white"/>
</svg>
