<svg width="35" height="24" viewBox="0 0 35 24" fill="none" xmlns="http://www.w3.org/2000/svg">
<g clip-path="url(#clip0_67_200526)">
<path d="M34.9999 15.0079C34.9999 15.0079 32.8614 14.9196 31.2928 12.2195C31.9304 11.1308 32.2425 9.81449 32.1194 8.37317C31.7728 4.31254 28.6126 0.908521 25.061 0.769747L20.07 0.574879C16.5184 0.436106 13.2335 3.47718 12.7328 7.36701C12.2321 11.2571 15.2002 14.6224 19.3623 14.8842L25.2111 15.252C26.8531 15.3552 28.3273 14.9367 29.4909 14.1447C30.3888 14.7664 32.2012 15.6003 34.9999 15.0079Z" fill="#5189FA"/>
<path d="M25.6548 7.68375C25.5955 8.3119 26.0569 8.86908 26.685 8.92832C27.3131 8.98755 27.8703 8.52623 27.9296 7.89809C27.9888 7.26995 27.5275 6.71276 26.8993 6.65353C26.2712 6.5945 25.714 7.05561 25.6548 7.68375Z" fill="white"/>
<path d="M21.4634 7.28744C21.4041 7.91559 21.8655 8.47277 22.4936 8.5318C23.1217 8.59103 23.6789 8.12971 23.738 7.50157C23.7972 6.87343 23.3359 6.31624 22.7077 6.25701C22.0796 6.19819 21.5224 6.6593 21.4634 7.28744Z" fill="white"/>
<path d="M17.2715 6.89274C17.2122 7.52088 17.6736 8.07807 18.3017 8.1373C18.9298 8.19654 19.487 7.73521 19.5461 7.10707C19.6053 6.47893 19.144 5.92175 18.5158 5.86251C17.8879 5.80348 17.3307 6.2648 17.2715 6.89274Z" fill="white"/>
<path d="M12.7911 7.45683L6.97271 7.79905C2.83233 8.04269 -0.280328 11.1459 0.0200329 14.7304C0.233739 17.2794 1.9166 19.5234 4.18448 20.6428C3.31856 22.9389 1.68238 23.43 1.68238 23.43C4.39212 23.3182 5.83218 22.1015 6.47371 21.3404C6.70647 21.3703 6.94173 21.3894 7.17909 21.3957L12.3129 21.5315C15.9662 21.6282 19.232 18.4178 19.6078 14.3612C19.9833 10.3045 16.9315 7.21319 12.7911 7.45683Z" fill="#B1CFFF"/>
<path d="M12.1428 14.4275C12.176 15.0575 12.714 15.5412 13.344 15.5077C13.974 15.4745 14.4577 14.9365 14.4242 14.3065C14.391 13.6765 13.853 13.1928 13.223 13.2262C12.593 13.2595 12.1093 13.7972 12.1428 14.4275Z" fill="#F1F5F9"/>
<path d="M7.93816 14.6482C7.97144 15.2782 8.50937 15.7619 9.1394 15.7284C9.76943 15.6952 10.2531 15.1572 10.2197 14.5272C10.1862 13.8972 9.64844 13.4135 9.01842 13.447C8.38839 13.4804 7.90467 14.0184 7.93816 14.6482Z" fill="#F1F5F9"/>
<path d="M3.73406 14.8706C3.76755 15.5007 4.30527 15.9844 4.9353 15.9511C5.56532 15.9176 6.04904 15.3799 6.01555 14.7499C5.98227 14.1198 5.44434 13.6361 4.81432 13.6696C4.18429 13.7029 3.70057 14.2406 3.73406 14.8706Z" fill="#F1F5F9"/>
<path d="M19.6076 14.3612C19.9831 10.3045 16.9314 7.21319 12.791 7.45683L12.7238 7.4608C12.2813 11.3117 15.2335 14.6266 19.3625 14.8861L19.5386 14.8972C19.5664 14.7201 19.5909 14.5418 19.6076 14.3612Z" fill="white"/>
</g>
<defs>
<clipPath id="clip0_67_200526">
<rect width="35" height="24" fill="white"/>
</clipPath>
</defs>
</svg>
