<svg width="102" height="20" viewBox="0 0 102 20" fill="none" xmlns="http://www.w3.org/2000/svg">
<path d="M26.9999 12.3211C26.9999 12.3211 25.3502 12.253 24.1402 10.17C24.632 9.33025 24.8727 8.31478 24.7778 7.20291C24.5104 4.07044 22.0726 1.4445 19.3328 1.33744L15.4826 1.18712C12.7428 1.08006 10.2088 3.42602 9.82252 6.42674C9.43629 9.42761 11.7259 12.0237 14.9367 12.2257L19.4486 12.5094C20.7153 12.589 21.8525 12.2662 22.7501 11.6552C23.4428 12.1348 24.8409 12.7781 26.9999 12.3211Z" fill="#5189FA"/>
<path d="M19.7908 6.66976C19.7451 7.15433 20.101 7.58415 20.5856 7.62985C21.0701 7.67554 21.4999 7.31967 21.5456 6.83511C21.5913 6.35054 21.2355 5.92072 20.7509 5.87502C20.2663 5.82949 19.8365 6.1852 19.7908 6.66976Z" fill="white"/>
<path d="M16.5574 6.36521C16.5117 6.84977 16.8676 7.2796 17.3522 7.32513C17.8367 7.37083 18.2666 7.01496 18.3121 6.53039C18.3578 6.04583 18.0019 5.616 17.5173 5.57031C17.0328 5.52493 16.603 5.88065 16.5574 6.36521Z" fill="white"/>
<path d="M13.3238 6.06039C13.2781 6.54495 13.634 6.97478 14.1185 7.02047C14.6031 7.06617 15.0329 6.71029 15.0784 6.22573C15.1241 5.74117 14.7683 5.31134 14.2837 5.26564C13.7993 5.22011 13.3695 5.57598 13.3238 6.06039Z" fill="white"/>
<path d="M9.86739 6.49476L5.37892 6.75876C2.18493 6.94671 -0.216252 9.34063 0.0154539 12.1058C0.180312 14.0721 1.47851 15.8032 3.22801 16.6667C2.56002 18.438 1.29783 18.8168 1.29783 18.8168C3.38819 18.7306 4.49908 17.792 4.99398 17.2049C5.17353 17.228 5.35502 17.2427 5.53813 17.2475L9.49844 17.3523C12.3167 17.4269 14.8361 14.9503 15.1259 11.8209C15.4156 8.69153 13.0614 6.30682 9.86739 6.49476Z" fill="#B1CFFF"/>
<path d="M9.36723 11.8732C9.3929 12.3593 9.80788 12.7324 10.2939 12.7066C10.7799 12.6809 11.1531 12.2659 11.1272 11.7799C11.1016 11.2939 10.6866 10.9207 10.2006 10.9466C9.71455 10.9723 9.3414 11.3871 9.36723 11.8732Z" fill="#F1F5F9"/>
<path d="M6.12382 12.0432C6.1495 12.5292 6.56447 12.9023 7.05049 12.8765C7.5365 12.8508 7.90966 12.4359 7.88382 11.9498C7.85799 11.4638 7.44318 11.0907 6.95716 11.1165C6.47114 11.1423 6.09799 11.5573 6.12382 12.0432Z" fill="#F1F5F9"/>
<path d="M2.88066 12.2149C2.90649 12.7009 3.3213 13.074 3.80732 13.0484C4.29334 13.0225 4.66649 12.6077 4.64066 12.1217C4.61498 11.6357 4.20001 11.2625 3.71399 11.2884C3.22798 11.314 2.85482 11.7289 2.88066 12.2149Z" fill="#F1F5F9"/>
<path d="M15.1259 11.8209C15.4156 8.69153 13.0614 6.30682 9.86743 6.49476L9.8156 6.49783C9.47426 9.46851 11.7516 12.0257 14.9369 12.2259L15.0727 12.2344C15.0941 12.0978 15.113 11.9603 15.1259 11.8209Z" fill="white"/>
<path d="M38.016 14.144C37.16 14.144 36.384 13.96 35.688 13.592C35 13.216 34.456 12.7 34.056 12.044C33.664 11.38 33.468 10.632 33.468 9.8C33.468 8.968 33.664 8.224 34.056 7.568C34.456 6.904 35 6.388 35.688 6.02C36.384 5.644 37.164 5.456 38.028 5.456C38.756 5.456 39.412 5.584 39.996 5.84C40.588 6.096 41.084 6.464 41.484 6.944L40.236 8.096C39.668 7.44 38.964 7.112 38.124 7.112C37.604 7.112 37.14 7.228 36.732 7.46C36.324 7.684 36.004 8 35.772 8.408C35.548 8.816 35.436 9.28 35.436 9.8C35.436 10.32 35.548 10.784 35.772 11.192C36.004 11.6 36.324 11.92 36.732 12.152C37.14 12.376 37.604 12.488 38.124 12.488C38.964 12.488 39.668 12.156 40.236 11.492L41.484 12.644C41.084 13.132 40.588 13.504 39.996 13.76C39.404 14.016 38.744 14.144 38.016 14.144ZM45.5141 14.096C44.8341 14.096 44.2221 13.956 43.6781 13.676C43.1421 13.388 42.7221 12.992 42.4181 12.488C42.1141 11.984 41.9621 11.412 41.9621 10.772C41.9621 10.132 42.1141 9.56 42.4181 9.056C42.7221 8.552 43.1421 8.16 43.6781 7.88C44.2221 7.592 44.8341 7.448 45.5141 7.448C46.1941 7.448 46.8021 7.592 47.3381 7.88C47.8741 8.16 48.2941 8.552 48.5981 9.056C48.9021 9.56 49.0541 10.132 49.0541 10.772C49.0541 11.412 48.9021 11.984 48.5981 12.488C48.2941 12.992 47.8741 13.388 47.3381 13.676C46.8021 13.956 46.1941 14.096 45.5141 14.096ZM45.5141 12.56C45.9941 12.56 46.3861 12.4 46.6901 12.08C47.0021 11.752 47.1581 11.316 47.1581 10.772C47.1581 10.228 47.0021 9.796 46.6901 9.476C46.3861 9.148 45.9941 8.984 45.5141 8.984C45.0341 8.984 44.6381 9.148 44.3261 9.476C44.0141 9.796 43.8581 10.228 43.8581 10.772C43.8581 11.316 44.0141 11.752 44.3261 12.08C44.6381 12.4 45.0341 12.56 45.5141 12.56ZM60.5174 7.544V11.108C60.5174 12.06 60.2574 12.796 59.7374 13.316C59.2174 13.836 58.4774 14.096 57.5174 14.096C57.0534 14.096 56.6414 14.024 56.2814 13.88C55.9294 13.736 55.6334 13.504 55.3934 13.184C55.1534 13.504 54.8574 13.736 54.5054 13.88C54.1534 14.024 53.7374 14.096 53.2574 14.096C52.2894 14.096 51.5494 13.836 51.0374 13.316C50.5254 12.796 50.2694 12.06 50.2694 11.108V7.544H52.1414V10.964C52.1414 11.5 52.2334 11.896 52.4174 12.152C52.6014 12.4 52.8894 12.524 53.2814 12.524C53.6814 12.524 53.9774 12.396 54.1694 12.14C54.3614 11.884 54.4574 11.492 54.4574 10.964V7.544H56.3294V10.964C56.3294 11.492 56.4254 11.884 56.6174 12.14C56.8094 12.396 57.1054 12.524 57.5054 12.524C57.8974 12.524 58.1854 12.4 58.3694 12.152C58.5534 11.896 58.6454 11.5 58.6454 10.964V7.544H60.5174ZM65.2719 14.096C64.5919 14.096 63.9799 13.956 63.4359 13.676C62.8999 13.388 62.4799 12.992 62.1759 12.488C61.8719 11.984 61.7199 11.412 61.7199 10.772C61.7199 10.132 61.8719 9.56 62.1759 9.056C62.4799 8.552 62.8999 8.16 63.4359 7.88C63.9799 7.592 64.5919 7.448 65.2719 7.448C65.9519 7.448 66.5599 7.592 67.0959 7.88C67.6319 8.16 68.0519 8.552 68.3559 9.056C68.6599 9.56 68.8119 10.132 68.8119 10.772C68.8119 11.412 68.6599 11.984 68.3559 12.488C68.0519 12.992 67.6319 13.388 67.0959 13.676C66.5599 13.956 65.9519 14.096 65.2719 14.096ZM65.2719 12.56C65.7519 12.56 66.1439 12.4 66.4479 12.08C66.7599 11.752 66.9159 11.316 66.9159 10.772C66.9159 10.228 66.7599 9.796 66.4479 9.476C66.1439 9.148 65.7519 8.984 65.2719 8.984C64.7919 8.984 64.3959 9.148 64.0839 9.476C63.7719 9.796 63.6159 10.228 63.6159 10.772C63.6159 11.316 63.7719 11.752 64.0839 12.08C64.3959 12.4 64.7919 12.56 65.2719 12.56ZM71.8512 8.396C72.0752 8.084 72.3752 7.848 72.7512 7.688C73.1352 7.528 73.5752 7.448 74.0712 7.448V9.176C73.8632 9.16 73.7232 9.152 73.6512 9.152C73.1152 9.152 72.6952 9.304 72.3912 9.608C72.0872 9.904 71.9352 10.352 71.9352 10.952V14H70.0632V7.544H71.8512V8.396ZM77.9563 11.468L77.0563 12.356V14H75.1843V5.096H77.0563V10.136L79.7923 7.544H82.0243L79.3363 10.28L82.2643 14H79.9963L77.9563 11.468ZM86.0769 12.596C86.4129 12.596 86.7089 12.548 86.9649 12.452C87.2289 12.348 87.4729 12.188 87.6969 11.972L88.6929 13.052C88.0849 13.748 87.1969 14.096 86.0289 14.096C85.3009 14.096 84.6569 13.956 84.0969 13.676C83.5369 13.388 83.1049 12.992 82.8009 12.488C82.4969 11.984 82.3449 11.412 82.3449 10.772C82.3449 10.14 82.4929 9.572 82.7889 9.068C83.0929 8.556 83.5049 8.16 84.0249 7.88C84.5529 7.592 85.1449 7.448 85.8009 7.448C86.4169 7.448 86.9769 7.58 87.4809 7.844C87.9849 8.1 88.3849 8.476 88.6809 8.972C88.9849 9.46 89.1369 10.04 89.1369 10.712L84.3609 11.636C84.4969 11.956 84.7089 12.196 84.9969 12.356C85.2929 12.516 85.6529 12.596 86.0769 12.596ZM85.8009 8.864C85.3289 8.864 84.9449 9.016 84.6489 9.32C84.3529 9.624 84.1969 10.044 84.1809 10.58L87.3249 9.968C87.2369 9.632 87.0569 9.364 86.7849 9.164C86.5129 8.964 86.1849 8.864 85.8009 8.864ZM92.1833 8.396C92.4073 8.084 92.7073 7.848 93.0833 7.688C93.4673 7.528 93.9073 7.448 94.4033 7.448V9.176C94.1953 9.16 94.0553 9.152 93.9833 9.152C93.4473 9.152 93.0273 9.304 92.7233 9.608C92.4193 9.904 92.2673 10.352 92.2673 10.952V14H90.3953V7.544H92.1833V8.396ZM97.7118 14.096C97.1758 14.096 96.6518 14.032 96.1398 13.904C95.6278 13.768 95.2198 13.6 94.9158 13.4L95.5398 12.056C95.8278 12.24 96.1758 12.392 96.5838 12.512C96.9918 12.624 97.3918 12.68 97.7838 12.68C98.5758 12.68 98.9718 12.484 98.9718 12.092C98.9718 11.908 98.8638 11.776 98.6478 11.696C98.4318 11.616 98.0998 11.548 97.6518 11.492C97.1238 11.412 96.6878 11.32 96.3438 11.216C95.9998 11.112 95.6998 10.928 95.4438 10.664C95.1958 10.4 95.0718 10.024 95.0718 9.536C95.0718 9.128 95.1878 8.768 95.4198 8.456C95.6598 8.136 96.0038 7.888 96.4518 7.712C96.9078 7.536 97.4438 7.448 98.0598 7.448C98.5158 7.448 98.9678 7.5 99.4158 7.604C99.8718 7.7 100.248 7.836 100.544 8.012L99.9198 9.344C99.3518 9.024 98.7318 8.864 98.0598 8.864C97.6598 8.864 97.3598 8.92 97.1598 9.032C96.9598 9.144 96.8598 9.288 96.8598 9.464C96.8598 9.664 96.9678 9.804 97.1838 9.884C97.3998 9.964 97.7438 10.04 98.2158 10.112C98.7438 10.2 99.1758 10.296 99.5118 10.4C99.8478 10.496 100.14 10.676 100.388 10.94C100.636 11.204 100.76 11.572 100.76 12.044C100.76 12.444 100.64 12.8 100.4 13.112C100.16 13.424 99.8078 13.668 99.3438 13.844C98.8878 14.012 98.3438 14.096 97.7118 14.096Z" fill="#5189FA"/>
</svg>
