<svg width="225" height="31" viewBox="0 0 225 31" fill="none" xmlns="http://www.w3.org/2000/svg">
<path d="M15.1604 30.1597C12.3071 30.1597 9.72043 29.5464 7.40043 28.3197C5.1071 27.0664 3.29376 25.3464 1.96043 23.1597C0.653763 20.9464 0.00042972 18.453 0.00042972 15.6797C0.00042972 12.9064 0.653763 10.4264 1.96043 8.23969C3.29376 6.02635 5.1071 4.30635 7.40043 3.07969C9.72043 1.82635 12.3204 1.19969 15.2004 1.19969C17.6271 1.19969 19.8138 1.62635 21.7604 2.47969C23.7338 3.33302 25.3871 4.55969 26.7204 6.15969L22.5604 9.99969C20.6671 7.81302 18.3204 6.71969 15.5204 6.71969C13.7871 6.71969 12.2404 7.10635 10.8804 7.87969C9.52043 8.62635 8.45376 9.67969 7.68043 11.0397C6.93376 12.3997 6.56043 13.9464 6.56043 15.6797C6.56043 17.413 6.93376 18.9597 7.68043 20.3197C8.45376 21.6797 9.52043 22.7464 10.8804 23.5197C12.2404 24.2664 13.7871 24.6397 15.5204 24.6397C18.3204 24.6397 20.6671 23.533 22.5604 21.3197L26.7204 25.1597C25.3871 26.7864 23.7338 28.0264 21.7604 28.8797C19.7871 29.733 17.5871 30.1597 15.1604 30.1597ZM40.1542 29.9997C37.8875 29.9997 35.8475 29.533 34.0342 28.5997C32.2475 27.6397 30.8475 26.3197 29.8342 24.6397C28.8208 22.9597 28.3142 21.053 28.3142 18.9197C28.3142 16.7864 28.8208 14.8797 29.8342 13.1997C30.8475 11.5197 32.2475 10.213 34.0342 9.27969C35.8475 8.31969 37.8875 7.83969 40.1542 7.83969C42.4208 7.83969 44.4475 8.31969 46.2342 9.27969C48.0208 10.213 49.4208 11.5197 50.4342 13.1997C51.4475 14.8797 51.9542 16.7864 51.9542 18.9197C51.9542 21.053 51.4475 22.9597 50.4342 24.6397C49.4208 26.3197 48.0208 27.6397 46.2342 28.5997C44.4475 29.533 42.4208 29.9997 40.1542 29.9997ZM40.1542 24.8797C41.7542 24.8797 43.0608 24.3464 44.0742 23.2797C45.1142 22.1864 45.6342 20.733 45.6342 18.9197C45.6342 17.1064 45.1142 15.6664 44.0742 14.5997C43.0608 13.5064 41.7542 12.9597 40.1542 12.9597C38.5542 12.9597 37.2342 13.5064 36.1942 14.5997C35.1542 15.6664 34.6342 17.1064 34.6342 18.9197C34.6342 20.733 35.1542 22.1864 36.1942 23.2797C37.2342 24.3464 38.5542 24.8797 40.1542 24.8797ZM90.1651 8.15969V20.0397C90.1651 23.213 89.2985 25.6664 87.5651 27.3997C85.8318 29.133 83.3651 29.9997 80.1651 29.9997C78.6185 29.9997 77.2451 29.7597 76.0451 29.2797C74.8718 28.7997 73.8851 28.0264 73.0851 26.9597C72.2851 28.0264 71.2985 28.7997 70.1251 29.2797C68.9518 29.7597 67.5651 29.9997 65.9651 29.9997C62.7385 29.9997 60.2718 29.133 58.5651 27.3997C56.8585 25.6664 56.0051 23.213 56.0051 20.0397V8.15969H62.2451V19.5597C62.2451 21.3464 62.5518 22.6664 63.1651 23.5197C63.7785 24.3464 64.7385 24.7597 66.0451 24.7597C67.3785 24.7597 68.3651 24.333 69.0051 23.4797C69.6451 22.6264 69.9651 21.3197 69.9651 19.5597V8.15969H76.2051V19.5597C76.2051 21.3197 76.5251 22.6264 77.1651 23.4797C77.8051 24.333 78.7918 24.7597 80.1251 24.7597C81.4318 24.7597 82.3918 24.3464 83.0051 23.5197C83.6185 22.6664 83.9251 21.3464 83.9251 19.5597V8.15969H90.1651ZM106.014 29.9997C103.747 29.9997 101.707 29.533 99.8936 28.5997C98.1069 27.6397 96.7069 26.3197 95.6936 24.6397C94.6802 22.9597 94.1736 21.053 94.1736 18.9197C94.1736 16.7864 94.6802 14.8797 95.6936 13.1997C96.7069 11.5197 98.1069 10.213 99.8936 9.27969C101.707 8.31969 103.747 7.83969 106.014 7.83969C108.28 7.83969 110.307 8.31969 112.094 9.27969C113.88 10.213 115.28 11.5197 116.294 13.1997C117.307 14.8797 117.814 16.7864 117.814 18.9197C117.814 21.053 117.307 22.9597 116.294 24.6397C115.28 26.3197 113.88 27.6397 112.094 28.5997C110.307 29.533 108.28 29.9997 106.014 29.9997ZM106.014 24.8797C107.614 24.8797 108.92 24.3464 109.934 23.2797C110.974 22.1864 111.494 20.733 111.494 18.9197C111.494 17.1064 110.974 15.6664 109.934 14.5997C108.92 13.5064 107.614 12.9597 106.014 12.9597C104.414 12.9597 103.094 13.5064 102.054 14.5997C101.014 15.6664 100.494 17.1064 100.494 18.9197C100.494 20.733 101.014 22.1864 102.054 23.2797C103.094 24.3464 104.414 24.8797 106.014 24.8797ZM127.944 10.9997C128.691 9.95969 129.691 9.17302 130.944 8.63969C132.224 8.10635 133.691 7.83969 135.344 7.83969V13.5997C134.651 13.5464 134.184 13.5197 133.944 13.5197C132.158 13.5197 130.758 14.0264 129.744 15.0397C128.731 16.0264 128.224 17.5197 128.224 19.5197V29.6797H121.984V8.15969H127.944V10.9997ZM148.295 21.2397L145.295 24.1997V29.6797H139.055V-0.000314236H145.295V16.7997L154.415 8.15969H161.855L152.895 17.2797L162.655 29.6797H155.095L148.295 21.2397ZM175.364 24.9997C176.484 24.9997 177.47 24.8397 178.324 24.5197C179.204 24.173 180.017 23.6397 180.764 22.9197L184.084 26.5197C182.057 28.8397 179.097 29.9997 175.204 29.9997C172.777 29.9997 170.63 29.533 168.764 28.5997C166.897 27.6397 165.457 26.3197 164.444 24.6397C163.43 22.9597 162.924 21.053 162.924 18.9197C162.924 16.813 163.417 14.9197 164.404 13.2397C165.417 11.533 166.79 10.213 168.524 9.27969C170.284 8.31969 172.257 7.83969 174.444 7.83969C176.497 7.83969 178.364 8.27969 180.044 9.15969C181.724 10.013 183.057 11.2664 184.044 12.9197C185.057 14.5464 185.564 16.4797 185.564 18.7197L169.644 21.7997C170.097 22.8664 170.804 23.6664 171.764 24.1997C172.75 24.733 173.95 24.9997 175.364 24.9997ZM174.444 12.5597C172.87 12.5597 171.59 13.0664 170.604 14.0797C169.617 15.093 169.097 16.493 169.044 18.2797L179.524 16.2397C179.23 15.1197 178.63 14.2264 177.724 13.5597C176.817 12.893 175.724 12.5597 174.444 12.5597ZM195.718 10.9997C196.465 9.95969 197.465 9.17302 198.718 8.63969C199.998 8.10635 201.465 7.83969 203.118 7.83969V13.5997C202.425 13.5464 201.958 13.5197 201.718 13.5197C199.931 13.5197 198.531 14.0264 197.518 15.0397C196.505 16.0264 195.998 17.5197 195.998 19.5197V29.6797H189.758V8.15969H195.718V10.9997ZM214.146 29.9997C212.36 29.9997 210.613 29.7864 208.906 29.3597C207.2 28.9064 205.84 28.3464 204.826 27.6797L206.906 23.1997C207.866 23.813 209.026 24.3197 210.386 24.7197C211.746 25.093 213.08 25.2797 214.386 25.2797C217.026 25.2797 218.346 24.6264 218.346 23.3197C218.346 22.7064 217.986 22.2664 217.266 21.9997C216.546 21.733 215.44 21.5064 213.946 21.3197C212.186 21.053 210.733 20.7464 209.586 20.3997C208.44 20.053 207.44 19.4397 206.586 18.5597C205.76 17.6797 205.346 16.4264 205.346 14.7997C205.346 13.4397 205.733 12.2397 206.506 11.1997C207.306 10.133 208.453 9.30635 209.946 8.71969C211.466 8.13302 213.253 7.83969 215.306 7.83969C216.826 7.83969 218.333 8.01302 219.826 8.35969C221.346 8.67969 222.6 9.13302 223.586 9.71969L221.506 14.1597C219.613 13.093 217.546 12.5597 215.306 12.5597C213.973 12.5597 212.973 12.7464 212.306 13.1197C211.64 13.493 211.306 13.973 211.306 14.5597C211.306 15.2264 211.666 15.693 212.386 15.9597C213.106 16.2264 214.253 16.4797 215.826 16.7197C217.586 17.013 219.026 17.333 220.146 17.6797C221.266 17.9997 222.24 18.5997 223.066 19.4797C223.893 20.3597 224.306 21.5864 224.306 23.1597C224.306 24.493 223.906 25.6797 223.106 26.7197C222.306 27.7597 221.133 28.573 219.586 29.1597C218.066 29.7197 216.253 29.9997 214.146 29.9997Z" fill="#5189FA"/>
</svg>
